<svg xmlns="http://www.w3.org/2000/svg" viewBox="0 0 170.3 90.05"><defs><style>.cls-1{isolation:isolate;}.cls-2{font-size:72px;stroke:#fff;stroke-miterlimit:10;stroke-width:0.7px;font-family:Kanit-ExtraBold, Kanit ExtraBold;font-weight:800;}</style></defs><title>jylag-logo</title><g id="JYLAG" class="cls-1"><g id="JYLAG-2" data-name="JYLAG"><path d="M163,21.48v9.43h8.42v4.76a18.88,18.88,0,0,1-5.47.72q-5.19,0-7.74-2.49t-2.56-8.1c0-3.84,1.07-6.63,3.21-8.39s5.24-2.62,9.32-2.62A38.75,38.75,0,0,1,181.76,17V3.77a46.6,46.6,0,0,0-14.69-2.09q-13.24,0-20.23,6.19-6.81,6-7,17.38L131.08,2.4h-16.2L101.62,37H92.86V2.4H68.94L60.58,18.53,52.23,2.4H28.66V30.12q0,3.39-1.51,4.83t-5,1.44A21.67,21.67,0,0,1,14,35V47.83a34.21,34.21,0,0,0,11.3,1.66q9.21,0,14-4.18t4.82-12V16.58l8.67,15.27V48.77H68.29V31.85l9.09-16V48.77h35.84l3.53-9.22h12.46l3.6,9.22h16.12L147,43.83c4.45,3.76,10.75,5.66,19,5.66a41.63,41.63,0,0,0,10.58-1.22,28.32,28.32,0,0,0,7.71-3.17V21.48Zm-44.35,7.27,4.32-11.23,4.39,11.23Z" transform="translate(-13.98 13.28)"/></g></g><g id="Seattle_WA" data-name="Seattle, WA" class="cls-1"><text class="cls-2" transform="translate(20.61 62.05)">Y</text><text class="cls-2" transform="translate(81.7 62.05)">A</text></g></svg>